# xmcd
# 
# Track frame offsets:
#     150
#     16763
#     27540
#     44981
#     62075
#     72730
#     84571
#     100864
#     115506
# 
# Disc length: 1691
# 
# Revision: 1
# Processed by: cddbd v1.5.2PL0 Copyright (c) Steve Scherf et al.
# Submitted via: fre:ac v1.0.17
# 
DISCID=7a069909
DTITLE=Kevin Fowler - One for the Road
DYEAR=1997
DGENRE=Country
TTITLE0=True Love
TTITLE1=River Of Love
TTITLE2=One For The Road
TTITLE3=Ol' What's Her Name
TTITLE4=Ball And Chain
TTITLE5=Tall Drink Of Water
TTITLE6=All The Tequila In Tijuana
TTITLE7=Lost My Heart In Oklahoma
TTITLE8=I Told You So
EXTD=
EXTT0=
EXTT1=
EXTT2=
EXTT3=
EXTT4=
EXTT5=
EXTT6=
EXTT7=
EXTT8=
PLAYORDER=
